HIERARCHY
ROOT root
{
	OFFSET	0	13.1	24.9
	CHANNELS 6  Xposition Yposition Zposition Xrotation Yrotation Zrotation
	JOINT spine_1
	{
		OFFSET	0	9.99999	0
		CHANNELS 3  Xrotation Yrotation Zrotation
		JOINT spine_2
		{
			OFFSET	0	112	-10
			CHANNELS 3  Xrotation Yrotation Zrotation
			JOINT spine_3
			{
				OFFSET	0	206.5	19.3
				CHANNELS 3  Xrotation Yrotation Zrotation
				JOINT spine_4
				{
					OFFSET	0	110.4	14.6
					CHANNELS 3  Xrotation Yrotation Zrotation
					JOINT neck_1
					{
						OFFSET	0	71.8	-50.3
						CHANNELS 3  Xrotation Yrotation Zrotation
						JOINT neck_2
						{
							OFFSET	0	86.2	-25.8
							CHANNELS 3  Xrotation Yrotation Zrotation
							JOINT head_ee
							{
								OFFSET	0	179.8	-8.7
								CHANNELS 3  Xrotation Yrotation Zrotation
								End Site
								{
									OFFSET	1	0	0
								}
							}
						}
					}
					JOINT left_clavicle
					{
						OFFSET	-43.2	22.4	-70.8
						CHANNELS 3  Xrotation Yrotation Zrotation
						JOINT left_shoulder
						{
							OFFSET	-93.9	-5.79999	48.7
							CHANNELS 3  Xrotation Yrotation Zrotation
							JOINT left_elbow
							{
								OFFSET	-291.4	-30.8	15.2
								CHANNELS 3  Xrotation Yrotation Zrotation
								JOINT left_lowarm_twist
								{
									OFFSET	-110.7	-3.89999	13.6
									CHANNELS 3  Xrotation Yrotation Zrotation
									JOINT left_hand
									{
										OFFSET	-110.7	-3.89999	13.6
										CHANNELS 3  Xrotation Yrotation Zrotation
										JOINT left_ee
										{
											OFFSET	-80.8	-5.10001	12.1
											CHANNELS 3  Xrotation Yrotation Zrotation
											End Site
											{
												OFFSET	1	0	0
											}
										}
									}
								}
							}
						}
					}
					JOINT right_clavicle
					{
						OFFSET	43.2	22.4	-70.8
						CHANNELS 3  Xrotation Yrotation Zrotation
						JOINT right_shoulder
						{
							OFFSET	93.9	-5.79999	48.7
							CHANNELS 3  Xrotation Yrotation Zrotation
							JOINT right_elbow
							{
								OFFSET	291.4	-30.8	15.2
								CHANNELS 3  Xrotation Yrotation Zrotation
								JOINT right_lowarm_twist
								{
									OFFSET	110.7	-3.89999	13.6
									CHANNELS 3  Xrotation Yrotation Zrotation
									JOINT right_hand
									{
										OFFSET	110.7	-3.89999	13.6
										CHANNELS 3  Xrotation Yrotation Zrotation
										JOINT right_ee
										{
											OFFSET	80.8	-5.10001	12.1
											CHANNELS 3  Xrotation Yrotation Zrotation
											End Site
											{
												OFFSET	1	0	0
											}
										}
									}
								}
							}
						}
					}
				}
			}
		}
	}
	JOINT left_hip
	{
		OFFSET	-82.8	-127.5	0.300001
		CHANNELS 3  Xrotation Yrotation Zrotation
		JOINT left_knee
		{
			OFFSET	-28.2	-396.7	2.2
			CHANNELS 3  Xrotation Yrotation Zrotation
			JOINT left_ankle
			{
				OFFSET	-11.7	-411.3	35.4
				CHANNELS 3  Xrotation Yrotation Zrotation
				JOINT left_toes
				{
					OFFSET	0	-60	-88.6
					CHANNELS 3  Xrotation Yrotation Zrotation
					JOINT left_foot_ee
					{
						OFFSET	-22.5	-16.5	-42.2
						CHANNELS 3  Xrotation Yrotation Zrotation
						End Site
						{
							OFFSET	1	0	0
						}
					}
				}
			}
		}
	}
	JOINT right_hip
	{
		OFFSET	82.8	-127.5	0.300001
		CHANNELS 3  Xrotation Yrotation Zrotation
		JOINT right_knee
		{
			OFFSET	28.2	-396.7	2.2
			CHANNELS 3  Xrotation Yrotation Zrotation
			JOINT right_ankle
			{
				OFFSET	11.7	-411.3	35.4
				CHANNELS 3  Xrotation Yrotation Zrotation
				JOINT right_toes
				{
					OFFSET	0	-60	-88.6
					CHANNELS 3  Xrotation Yrotation Zrotation
					JOINT right_foot_ee
					{
						OFFSET	22.5	-16.5	-42.2
						CHANNELS 3  Xrotation Yrotation Zrotation
						End Site
						{
							OFFSET	1	0	0
						}
					}
				}
			}
		}
	}
}
MOTION
Frames: 9
Frame Time: 0.02
1058.07855139 747.61 -1795.46747464 2.25910977272 43.7648132669 -0.557332549452 -2.03398 0.122689 0.30771 -2.03393 0.10286 0.314894 -2.03329 0.0226684 0.330491 -2.03344 0.0745785 0.322763 3.15908 9.36269 -0.706311 3.4693 16.9129 -0.184127 -0.0 0.0 -0.0 5.96143 -7.9485 11.2975 -25.8962 -6.36799 68.2641 0.287998 -8.11953 0.0204407 6.33419 0.179721 -0.788737 0.862348 -0.256639 5.66404 -0.0 0.0 -0.0 10.7714 1.7229 -21.3534 -3.54776 28.2003 -50.9927 1.42854 35.2833 -0.454322 29.0469 -0.0948276 3.66984 1.0028 3.35004 -5.33418 0.0 0.0 0.0 11.4008 -10.8593 0.729142 -51.464 -1.35204 7.5208 37.822 18.9689 -4.8004 -27.3972 0.0 0.0 -0.0 0.0 -0.0 2.16593 8.23933 -8.3899 -11.2396 -0.297172 -1.69654 21.3772 4.18834 2.9559 -30.5299 0.0 0.0 0.0 0.0 0.0 
1041.53873057 752.254 -1817.06180311 1.80459163621 43.3280757431 0.0445718681329 -2.00867 0.284468 0.264035 -2.00867 0.26709 0.281601 -2.0073 0.190209 0.338315 -2.00738 0.241252 0.304029 2.05364 9.18095 -1.11365 2.34568 17.0651 -0.518068 -0.0 0.0 -0.0 5.66873 -6.73119 10.7462 -26.9576 -6.55188 68.5729 0.329354 -9.26649 0.0266916 5.68287 0.16528 -0.706791 0.920932 0.491723 6.36286 -0.0 0.0 -0.0 10.7329 2.52525 -21.3088 -3.28708 28.4466 -49.5728 1.55063 37.5266 -0.526798 30.5267 -0.0497746 3.85349 1.19213 4.77018 -6.02271 0.0 0.0 0.0 15.2564 -12.2073 0.3569 -53.3031 -1.52185 7.74762 36.9008 18.4898 -4.7015 -27.9291 0.0 0.0 -0.0 0.0 -0.0 -1.47729 7.91172 -8.16 -8.44673 -0.254528 -1.27016 22.6636 3.69417 3.10792 -30.7313 0.0 0.0 0.0 0.0 0.0 
1045.20808978 752.254 -1820.57182539 1.78669855581 42.7165055648 0.0707968065412 -2.00867 0.284468 0.264035 -2.00867 0.26709 0.281601 -2.0073 0.190209 0.338315 -2.00738 0.241252 0.304029 2.05364 9.18095 -1.11365 2.34568 17.0651 -0.518068 -0.0 0.0 -0.0 5.66873 -6.73119 10.7462 -26.9576 -6.55188 68.5729 0.329354 -9.26649 0.0266916 5.68287 0.16528 -0.706791 0.920932 0.491723 6.36286 -0.0 0.0 -0.0 10.7329 2.52525 -21.3088 -3.28708 28.4466 -49.5728 1.55063 37.5266 -0.526798 30.5267 -0.0497746 3.85349 1.19213 4.77018 -6.02271 0.0 0.0 0.0 15.2564 -12.2073 0.3569 -53.3031 -1.52185 7.74762 36.9008 18.4898 -4.7015 -27.9291 0.0 0.0 -0.0 0.0 -0.0 -1.47729 7.91172 -8.16 -8.44673 -0.254528 -1.27016 22.6636 3.69417 3.10792 -30.7313 0.0 0.0 0.0 0.0 0.0 
1024.17424523 747.129 -1832.31539737 2.8585459372 44.2251264457 -1.13987985262 -1.91603 0.199111 0.292728 -1.916 0.180081 0.304805 -1.91497 0.100713 0.339399 -1.9151 0.15305 0.319234 2.1843 9.37749 -0.986474 2.48533 17.2896 -0.379589 -0.0 0.0 -0.0 5.14696 -5.93879 9.71335 -28.3418 -5.80272 68.6303 0.347187 -9.75881 0.0296388 5.16298 0.153084 -0.641499 0.963194 1.11425 6.89901 -0.0 0.0 -0.0 10.7398 3.22656 -21.3523 -2.35089 28.9876 -49.0295 1.67444 39.6714 -0.604054 31.5073 -0.0173126 3.97452 1.35987 6.17062 -6.57187 0.0 0.0 0.0 17.429 -12.6619 0.297059 -53.8339 -1.57221 7.81206 35.5599 17.5817 -4.55247 -28.3831 0.0 0.0 -0.0 0.0 -0.0 -3.82815 8.08363 -7.62573 -7.86785 -0.243092 -1.18206 23.6619 2.10319 3.21253 -31.1095 0.0 0.0 0.0 0.0 0.0 
999.313670578 742.686 -1850.33460058 3.77756912272 44.1315724811 -2.03284288655 -1.93188 0.397784 0.318521 -1.9319 0.37671 0.343188 -1.92956 0.282043 0.424429 -1.92964 0.345533 0.374559 1.7524 8.82155 -1.95712 2.05837 17.1677 -1.44083 -0.0 0.0 -0.0 4.71045 -4.95919 8.87516 -29.9167 -5.53872 69.0316 0.382664 -10.7339 0.0359498 5.22428 0.154553 -0.649192 1.26099 1.46472 9.04224 -0.0 0.0 -0.0 10.7526 3.75861 -21.3994 -1.81382 29.7074 -47.0315 1.75181 40.9476 -0.654105 32.2297 0.00792526 4.06332 1.40646 6.87828 -6.58872 0.0 0.0 0.0 21.2511 -17.4625 1.35515 -47.3901 -1.00254 7.00004 31.3121 18.2901 -4.12066 -29.427 0.0 0.0 -0.0 0.0 -0.0 -7.07834 8.7164 -7.24663 -6.93284 -0.22274 -1.04002 24.4605 1.5101 3.30169 -30.7574 0.0 0.0 0.0 0.0 0.0 
985.547612809 739.598 -1866.81846715 3.83971482574 43.4974195921 -2.23109559908 -1.93609 0.479724 0.297106 -1.93616 0.459846 0.32703 -1.93348 0.366587 0.428978 -1.93348 0.429735 0.365699 1.38171 8.45761 -2.60474 1.69103 17.0961 -2.13433 -0.0 0.0 -0.0 4.43751 -3.96141 8.37724 -30.9987 -5.30149 69.424 0.408801 -11.4482 0.0409777 5.25589 0.155307 -0.653159 1.4761 1.72417 10.5983 -0.0 0.0 -0.0 10.885 3.94034 -21.6905 -1.04471 30.128 -45.7509 1.83792 42.3122 -0.711314 32.7697 0.0275236 4.1295 1.44455 7.63971 -6.5236 0.0 0.0 0.0 23.7178 -20.7478 1.74641 -43.2732 -0.688033 6.45032 28.0251 18.6741 -3.7595 -30.2415 0.0 0.0 -0.0 0.0 -0.0 -9.31824 9.06509 -6.15891 -6.21933 -0.205651 -0.931862 25.351 1.10978 3.40204 -30.4501 0.0 0.0 0.0 0.0 0.0 
976.27270452 736.97 -1882.9821752 3.05693353381 41.9110617387 -1.46629262953 -2.00679 0.443456 0.416845 -2.00679 0.416032 0.444219 -2.00342 0.294959 0.532364 -2.00361 0.375333 0.479101 1.06151 8.21346 -3.09868 1.37516 17.0968 -2.65331 -0.0 0.0 -0.0 4.38922 -3.45924 8.30685 -31.4532 -5.08344 69.696 0.434521 -12.1477 0.0462365 5.39425 0.158582 -0.670531 1.63438 1.92708 11.7517 -0.0 0.0 -0.0 10.8479 4.25161 -21.6213 0.266002 30.965 -44.9725 1.90306 43.3066 -0.755581 33.1583 0.0420147 4.17701 1.46992 8.16796 -6.47028 0.0 0.0 0.0 25.28 -23.1348 2.68395 -40.335 -0.488215 6.0451 25.9766 18.6338 -3.5206 -30.7315 0.0 0.0 -0.0 0.0 -0.0 -9.35613 9.39398 -6.239 -5.01315 -0.173701 -0.749517 25.9097 0.704257 3.46311 -30.2593 0.0 0.0 0.0 0.0 0.0 
968.886464147 736.97 -1875.68076275 3.10841930965 42.9567542357 -1.54259414132 -2.00679 0.443456 0.416845 -2.00679 0.416032 0.444219 -2.00342 0.294959 0.532364 -2.00361 0.375333 0.479101 1.06151 8.21346 -3.09868 1.37516 17.0968 -2.65331 -0.0 0.0 -0.0 4.38922 -3.45924 8.30685 -31.4532 -5.08344 69.696 0.434521 -12.1477 0.0462365 5.39425 0.158582 -0.670531 1.63438 1.92708 11.7517 -0.0 0.0 -0.0 10.8479 4.25161 -21.6213 0.266002 30.965 -44.9725 1.90306 43.3066 -0.755581 33.1583 0.0420147 4.17701 1.46992 8.16796 -6.47028 0.0 0.0 0.0 25.28 -23.1348 2.68395 -40.335 -0.488215 6.0451 25.9766 18.6338 -3.5206 -30.7315 0.0 0.0 -0.0 0.0 -0.0 -9.35613 9.39398 -6.239 -5.01315 -0.173701 -0.749517 25.9097 0.704257 3.46311 -30.2593 0.0 0.0 0.0 0.0 0.0 
963.128288651 735.044 -1893.29494856 1.49173924936 39.6608646103 -0.630991058005 -1.99442 0.302947 0.461223 -1.99434 0.272984 0.479565 -1.99187 0.147711 0.53168 -1.99219 0.229825 0.50168 0.73252 7.45955 -4.25684 1.06314 16.7341 -3.94162 -0.0 0.0 -0.0 4.22996 -1.4886 8.09131 -32.3022 -5.69367 70.4453 0.534538 -14.8314 0.0695738 5.8616 0.169336 -0.729262 1.96857 1.54767 13.884 -0.0 0.0 -0.0 10.9418 4.6727 -21.8378 2.16396 31.6344 -44.7963 2.05401 45.4916 -0.861218 32.5284 0.0186889 4.09995 1.60591 10.2854 -6.48066 0.0 0.0 0.0 29.4034 -28.2701 2.86178 -31.5992 -0.0205034 4.78836 19.9661 16.7885 -2.7656 -32.6551 0.0 0.0 -0.0 0.0 -0.0 -11.9381 9.52507 -4.51727 1.35507 0.0581675 0.199798 25.7015 0.542717 3.43803 -30.59 0.0 0.0 0.0 0.0 0.0 
